<?xml version="1.0" encoding="UTF-8" standalone="no"?>
<svg
   version="1.0"
   width="512.000000pt"
   height="512.000000pt"
   viewBox="0 0 512.000000 512.000000"
   preserveAspectRatio="xMidYMid meet"
   id="svg108"
   sodipodi:docname="hacker.svg"
   inkscape:version="1.2.2 (b0a8486541, 2022-12-01)"
   xmlns:inkscape="http://www.inkscape.org/namespaces/inkscape"
   xmlns:sodipodi="http://sodipodi.sourceforge.net/DTD/sodipodi-0.dtd"
   xmlns="http://www.w3.org/2000/svg"
   xmlns:svg="http://www.w3.org/2000/svg">
  <defs
     id="defs112" />
  <sodipodi:namedview
     id="namedview110"
     pagecolor="#ffffff"
     bordercolor="#000000"
     borderopacity="0.25"
     inkscape:showpageshadow="2"
     inkscape:pageopacity="1"
     inkscape:pagecheckerboard="0"
     inkscape:deskcolor="#d1d1d1"
     inkscape:document-units="pt"
     showgrid="false"
     inkscape:zoom="1"
     inkscape:cx="342.5"
     inkscape:cy="341"
     inkscape:window-width="1920"
     inkscape:window-height="1011"
     inkscape:window-x="0"
     inkscape:window-y="0"
     inkscape:window-maximized="1"
     inkscape:current-layer="svg108" />
  <rect
     style="fill:#ffffff;stroke-width:0.75"
     id="rect4497"
     width="500"
     height="500"
     x="-506"
     y="6"
     ry="83.485931"
     transform="rotate(-90)" />
  <g
     transform="matrix(0.06567796,0,0,-0.06567796,87.869981,424.06058)"
     fill="#000000"
     stroke="none"
     id="g106">
    <path
       d="m 2479,4960 c -104,-16 -225,-78 -296,-152 -59,-62 -795,-1083 -824,-1142 -28,-59 -56,-163 -46,-173 3,-2 44,19 91,47 214,129 507,232 781,275 143,23 452,30 614,15 318,-29 628,-125 893,-276 61,-35 113,-62 116,-60 9,9 -20,116 -47,172 -29,59 -765,1080 -824,1142 -109,114 -297,176 -458,152 z"
       id="path88" />
    <path
       d="m 2325,3669 c -125,-14 -321,-54 -442,-91 l -102,-31 6,-31 c 12,-63 54,-178 92,-254 103,-206 278,-363 476,-429 69,-23 96,-27 205,-27 109,0 136,4 205,27 198,66 373,223 476,429 38,76 80,191 92,254 l 6,31 -102,31 c -220,67 -383,92 -632,97 -104,2 -230,-1 -280,-6 z"
       id="path90" />
    <path
       d="m 1550,3444 c -121,-66 -220,-136 -220,-154 0,-41 77,-163 278,-438 l 213,-292 h 739 739 l 213,292 c 201,276 278,397 278,438 0,28 -281,203 -298,185 -3,-3 -16,-42 -29,-87 -101,-350 -367,-628 -688,-720 -114,-32 -316,-32 -430,0 -323,93 -586,369 -688,723 -14,46 -28,84 -33,86 -5,2 -38,-13 -74,-33 z"
       id="path92" />
    <path
       d="m 1260,2942 c -112,-29 -218,-105 -279,-200 -33,-52 -383,-846 -400,-908 -27,-99 -3,-239 58,-327 46,-68 92,-100 351,-251 202,-117 241,-136 277,-136 45,0 49,4 34,43 -6,14 -42,234 -81,488 -83,536 -85,574 -32,682 42,85 129,167 209,197 32,12 95,25 141,28 l 82,7 -131,180 c -71,99 -138,187 -147,197 -16,15 -21,15 -82,0 z"
       id="path94" />
    <path
       d="m 3776,2941 c -8,-9 -73,-97 -145,-196 l -131,-180 82,-7 c 46,-3 109,-16 141,-28 80,-30 167,-112 209,-197 53,-108 51,-146 -32,-682 -39,-254 -75,-474 -81,-488 -15,-39 -11,-43 35,-43 38,0 75,19 292,145 137,81 264,160 282,178 100,97 147,262 111,391 -17,62 -368,857 -401,909 -61,96 -173,174 -286,201 -55,13 -62,12 -76,-3 z"
       id="path96" />
    <path
       d="m 1469,2386 c -91,-32 -159,-125 -159,-218 0,-27 32,-254 70,-505 57,-365 75,-465 93,-497 l 22,-41 h 1065 1065 l 22,41 c 18,32 36,132 93,497 38,251 70,478 70,505 0,61 -39,141 -85,177 -76,57 -26,55 -1169,55 -829,-1 -1059,-4 -1087,-14 z m 1165,-398 c 55,-16 138,-99 154,-154 28,-94 8,-169 -63,-239 -101,-102 -229,-102 -330,0 -102,101 -102,229 0,330 70,71 145,90 239,63 z"
       id="path98" />
    <path
       d="m 2505,1815 c -50,-49 -15,-135 55,-135 41,0 80,39 80,80 0,41 -39,80 -80,80 -19,0 -40,-9 -55,-25 z"
       id="path100" />
    <path
       d="M 720,947 C 671,931 587,845 572,794 c -28,-94 -8,-169 63,-239 31,-32 65,-55 91,-63 32,-9 456,-12 1836,-12 2026,0 1853,-7 1931,80 90,100 90,220 0,320 -78,87 96,80 -1937,79 C 1273,958 745,955 720,947 Z"
       id="path102" />
    <path
       d="m 740,315 c 0,-40 89,-126 149,-143 55,-17 3287,-17 3342,0 60,17 149,103 149,143 0,3 -819,5 -1820,5 -1001,0 -1820,-2 -1820,-5 z"
       id="path104" />
  </g>
</svg>
